<?xml version="1.0" standalone="no"?>
<!DOCTYPE svg PUBLIC "-//W3C//DTD SVG 20010904//EN"
 "http://www.w3.org/TR/2001/REC-SVG-20010904/DTD/svg10.dtd">
<svg version="1.0" xmlns="http://www.w3.org/2000/svg"
 width="512.000000pt" height="512.000000pt" viewBox="0 0 512.000000 512.000000"
 preserveAspectRatio="xMidYMid meet">
<metadata>
Created by potrace 1.14, written by Peter Selinger 2001-2017
</metadata>
<g transform="translate(0.000000,512.000000) scale(0.100000,-0.100000)"
fill="#000000" stroke="none">
<path d="M2150 4511 c0 -37 -111 -1335 -114 -1338 -2 -2 -300 66 -662 151
-362 86 -660 154 -662 151 -5 -5 -252 -768 -249 -770 1 -1 208 -89 459 -195
l457 -193 88 84 c370 350 860 632 1493 860 l105 37 -1 39 c-1 21 -24 298 -50
616 l-48 577 -408 0 c-397 0 -408 -1 -408 -19z"/>
<path d="M4272 3460 c-446 -68 -836 -184 -1244 -371 -832 -381 -1558 -1045
-2023 -1852 -59 -101 -66 -120 -54 -131 8 -8 205 -136 439 -286 234 -150 430
-277 437 -282 9 -7 21 8 44 54 186 371 475 758 792 1064 514 495 1177 858
1844 1009 65 15 126 30 135 33 14 6 1 56 -110 395 -69 213 -128 387 -131 386
-3 0 -62 -9 -129 -19z"/>
<path d="M3394 2021 c-207 -145 -443 -413 -560 -634 -46 -88 -46 -88 -27 -110
20 -22 634 -739 639 -746 4 -5 654 470 654 479 0 6 -623 1044 -635 1058 -1 1
-33 -20 -71 -47z"/>
</g>
</svg>
